<?xml version="1.0" encoding="UTF-8"?>
<svg version="1.1" xmlns="http://www.w3.org/2000/svg" width="1016" height="958">
<path d="M0 0 C335.28 0 670.56 0 1016 0 C1016 316.14 1016 632.28 1016 958 C680.72 958 345.44 958 0 958 C0 641.86 0 325.72 0 0 Z " fill="#FEFEFE" transform="translate(0,0)"/>
<path d="M0 0 C1.96673676 0.00081573 1.96673676 0.00081573 3.97320557 0.00164795 C41.77873131 0.05205077 78.78515806 3.44598764 115.16796875 14.2265625 C119.18484195 15.4160874 123.23933136 16.39965822 127.3125 17.375 C138.23387094 20.04134507 148.63885543 23.70171603 158.99755859 28.0612793 C161.92752806 29.29204945 164.86567481 30.4998067 167.80859375 31.69921875 C189.43410766 40.55456606 209.95544263 50.5607158 230.125 62.375 C230.78467773 62.75897949 231.44435547 63.14295898 232.12402344 63.53857422 C254.30938011 76.52042578 275.59353996 92.71576683 294.54296875 110.0390625 C295.93106169 111.29485612 297.32490376 112.54503377 298.75073242 113.7578125 C304.90643841 119.0141171 310.62278941 124.68667085 316.3425293 130.40722656 C318.05043056 132.11294598 319.76618045 133.81049027 321.48242188 135.5078125 C328.16378058 142.15530899 334.27192926 148.97845395 340.125 156.375 C341.09587926 157.53453065 342.07269812 158.68914735 343.05859375 159.8359375 C374.26049379 196.14891321 399.6849393 239.34802233 416.125 284.375 C416.48948242 285.37031738 416.85396484 286.36563477 417.22949219 287.39111328 C435.07438623 336.57424511 444.61809244 387.67261515 444.4375 440 C444.43534485 441.1348584 444.4331897 442.2697168 444.43096924 443.43896484 C444.37683798 461.27411832 443.76337816 478.71116317 441.125 496.375 C440.97227631 497.41346069 440.97227631 497.41346069 440.81646729 498.47290039 C437.37965883 521.77648375 433.67739533 545.36943818 426.03515625 567.70996094 C425.0129464 570.70310544 424.08867176 573.71840835 423.1875 576.75 C407.74344452 626.98755979 381.84849751 674.34663178 349.125 715.375 C348.61243652 716.01904785 348.09987305 716.6630957 347.57177734 717.32666016 C335.64473771 732.23986147 322.65315143 745.91182338 309.1875 759.4375 C308.31150146 760.31825195 307.43550293 761.19900391 306.53295898 762.10644531 C301.55770867 767.06888627 296.48890538 771.83588996 291.125 776.375 C290.48989502 776.91680908 289.85479004 777.45861816 289.20043945 778.0168457 C278.56607924 787.03406681 267.57113735 795.41735186 256.125 803.375 C255.4129541 803.87209473 254.7009082 804.36918945 253.96728516 804.88134766 C235.87218325 817.43991941 216.70565801 828.3470586 197.10107422 838.36132812 C195.3426789 839.26333669 193.59439614 840.18499775 191.84765625 841.109375 C184.64444768 844.8608447 177.20990945 847.71476108 169.59033203 850.47412109 C164.65068364 852.27916195 159.73415816 854.14660036 154.8125 856 C151.86327414 857.10944096 148.91336046 858.2166552 145.95996094 859.31494141 C144.14632901 859.99310106 142.33661434 860.68189137 140.53222656 861.38427734 C132.36010725 864.49987864 123.97480347 866.64843544 115.5 868.75 C114.33446594 869.04114182 114.33446594 869.04114182 113.14538574 869.33816528 C101.62101047 872.20282171 90.06139437 874.70505001 78.375 876.8125 C77.0761084 877.04694824 75.7772168 877.28139648 74.43896484 877.52294922 C10.46761832 888.64947343 -58.60272216 884.60003167 -120.8125 865.875 C-121.51938965 865.66488281 -122.2262793 865.45476563 -122.95458984 865.23828125 C-127.52795197 863.85273202 -131.93563383 862.24984865 -136.33203125 860.38671875 C-139.40745994 859.1631611 -142.53213378 858.18698357 -145.6875 857.1875 C-196.40824221 840.69352974 -243.9613505 810.39062985 -283.875 775.375 C-284.57367188 774.776875 -285.27234375 774.17875 -285.9921875 773.5625 C-297.92477494 763.31993567 -309.71354552 752.49582885 -319.96875 740.5625 C-322.18445648 738.01988601 -324.46598592 735.54389802 -326.75 733.0625 C-331.66695641 727.65827764 -336.33558751 722.09810739 -340.875 716.375 C-341.41205566 715.69985352 -341.94911133 715.02470703 -342.50244141 714.32910156 C-349.23723578 705.83942709 -355.90345326 697.36215242 -361.70947266 688.19921875 C-363.12440624 685.98464319 -364.56903267 683.79034491 -366.01171875 681.59375 C-377.26394661 664.33571248 -387.11129894 646.36754953 -396.15625 627.86328125 C-397.29385414 625.55446194 -398.46029214 623.25960775 -399.65625 620.98046875 C-402.41090805 615.71153555 -404.60291312 611.36091129 -404.875 605.375 C-404.215 605.375 -403.555 605.375 -402.875 605.375 C-402.48513916 606.23158203 -402.48513916 606.23158203 -402.08740234 607.10546875 C-384.36870398 645.7532755 -360.87654022 681.13599322 -331.83984375 712.1875 C-329.91199048 714.25023399 -328.00872468 716.33091197 -326.12890625 718.4375 C-319.45465834 725.89602944 -312.33679421 732.70868998 -304.875 739.375 C-304.1325 740.04402344 -303.39 740.71304688 -302.625 741.40234375 C-297.53537726 745.927593 -292.22820246 750.16727596 -286.875 754.375 C-285.44220703 755.51775391 -285.44220703 755.51775391 -283.98046875 756.68359375 C-262.10550545 773.88089194 -237.88530631 788.26828395 -212.87402344 800.39990234 C-210.92144705 801.35234373 -208.98019177 802.32526728 -207.0390625 803.30078125 C-140.95274362 836.01466157 -61.59070195 846.42390603 11.125 836.375 C12.26710938 836.2210376 13.40921875 836.0670752 14.5859375 835.90844727 C73.68169103 827.74539935 133.16290605 807.0130771 182.125 772.375 C183.45782014 771.4523832 184.79119761 770.53057123 186.125 769.609375 C215.49337095 749.22388049 243.73109405 725.24051276 265.96484375 697.10546875 C267.48478912 695.18423582 269.04339426 693.29327198 270.62890625 691.42578125 C299.66643966 656.94500387 320.80184205 615.71137765 336.00048828 573.49536133 C336.72826736 571.47587709 337.46561262 569.45980398 338.21435547 567.44799805 C341.8735083 557.59795886 344.55712258 547.55724763 347.125 537.375 C347.38071777 536.36888672 347.63643555 535.36277344 347.89990234 534.32617188 C359.7143285 486.76803684 362.71479109 434.83289696 355.125 386.375 C354.9408252 385.11671387 354.9408252 385.11671387 354.75292969 383.83300781 C353.9942229 378.65582676 353.09618865 373.51604162 352.125 368.375 C351.98481445 367.60349609 351.84462891 366.83199219 351.70019531 366.03710938 C348.28828445 347.3130246 343.24914293 329.2377754 337.0625 311.25 C336.65112793 310.05318604 336.23975586 308.85637207 335.81591797 307.62329102 C318.26424196 257.43220794 290.07914923 211.46276774 254.125 172.375 C253.6290332 171.82859863 253.13306641 171.28219727 252.62207031 170.71923828 C240.37684008 157.23318768 227.42333729 144.68296481 213.125 133.375 C211.9751962 132.43526299 210.82684789 131.49374332 209.6796875 130.55078125 C200.82428759 123.30588028 191.68345047 116.66045838 182.125 110.375 C181.39829102 109.89562988 180.67158203 109.41625977 179.92285156 108.92236328 C145.25806501 86.19467248 107.23104699 68.10238288 67.125 57.375 C66.19413574 57.12411621 65.26327148 56.87323242 64.30419922 56.61474609 C50.02654229 52.80721413 35.70381223 49.76858202 21.125 47.375 C19.34029297 47.06949219 19.34029297 47.06949219 17.51953125 46.7578125 C14.06028096 46.21006276 10.60462266 45.77430096 7.125 45.375 C6.38894531 45.28476563 5.65289063 45.19453125 4.89453125 45.1015625 C-27.69745901 41.2672107 -62.45202354 41.32507584 -94.875 46.375 C-96.03725098 46.54660645 -97.19950195 46.71821289 -98.39697266 46.89501953 C-122.34351146 50.47595992 -145.36244408 56.37639628 -168.3125 64 C-169.00533081 64.22979553 -169.69816162 64.45959106 -170.4119873 64.6963501 C-184.33239425 69.33911323 -197.65211463 75.0337525 -210.875 81.375 C-211.48794922 81.66713379 -212.10089844 81.95926758 -212.73242188 82.26025391 C-230.84728477 90.9390943 -248.43747664 100.81972269 -264.875 112.375 C-265.45507812 112.77783203 -266.03515625 113.18066406 -266.6328125 113.59570312 C-315.85435168 147.80142033 -355.40083942 191.58733432 -385.61474609 243.23339844 C-386.68001832 245.04365958 -387.7690502 246.83990739 -388.86328125 248.6328125 C-394.24981741 257.52369287 -398.53404702 266.94317181 -402.875 276.375 C-403.535 276.375 -404.195 276.375 -404.875 276.375 C-403.87048866 270.30208575 -401.2037801 265.10867674 -398.625 259.5625 C-398.0899585 258.41048096 -397.55491699 257.25846191 -397.00366211 256.0715332 C-382.61341363 225.46898269 -364.88882811 196.8568282 -343.875 170.375 C-343.37887207 169.7473877 -342.88274414 169.11977539 -342.37158203 168.47314453 C-335.71293227 160.07656464 -328.84166984 151.98260894 -321.49609375 144.1796875 C-319.45314326 141.99363914 -317.49015198 139.78571457 -315.5625 137.5 C-307.45066572 128.12943282 -298.36683552 119.33420887 -288.875 111.375 C-287.84117056 110.47933687 -286.80875584 109.58203955 -285.77734375 108.68359375 C-244.63535077 72.93221949 -197.66736603 44.41812077 -146.4296875 25.67578125 C-144.30384089 24.89786156 -142.18230122 24.10776106 -140.0703125 23.29296875 C-132.27557182 20.31959502 -124.2742463 18.19204774 -116.22900391 16.02050781 C-113.95219607 15.39616847 -111.68452931 14.74641214 -109.41796875 14.0859375 C-94.30847525 9.70632568 -79.00934008 6.82625027 -63.5 4.25 C-62.56986084 4.09136475 -61.63972168 3.93272949 -60.68139648 3.76928711 C-40.53189601 0.53264497 -20.37237487 -0.03191192 0 0 Z " fill="#020202" transform="translate(524.875,43.625)"/>
<path d="M0 0 C1.84440606 0.00056541 3.68881258 0.00024503 5.53321838 -0.00088501 C10.49714738 -0.00145447 15.46097801 0.01023337 20.42488432 0.02426291 C25.62851673 0.03683866 30.83215186 0.03794613 36.03579712 0.04031372 C45.87036654 0.04650849 55.70489104 0.06289198 65.53944075 0.0830127 C76.74389901 0.10543433 87.94835951 0.11638083 99.15283465 0.12640357 C122.18345756 0.14726015 145.21404071 0.18239685 168.24462891 0.22705078 C167.14973247 1.95147616 166.05431839 3.67557288 164.95869446 5.39953613 C164.04376709 6.83975002 164.04376709 6.83975002 163.11035633 8.30905914 C160.21242916 12.84140783 157.25227103 17.33193903 154.28759766 21.82080078 C153.65856033 22.77474731 153.02952301 23.72869385 152.38142395 24.71154785 C150.39915147 27.71726124 148.4156539 30.72216385 146.43212891 33.72705078 C145.08374219 35.77126923 143.73543423 37.81553963 142.38720703 39.85986328 C139.93284416 43.58087747 137.47823045 47.30172549 135.02270508 51.02197266 C134.53307785 51.76378784 134.04345062 52.50560303 133.53898621 53.26989746 C132.44456538 54.92473369 131.34515184 56.57626637 130.24462891 58.22705078 C127.77921581 58.60063839 127.77921581 58.60063839 124.6089325 58.59886169 C122.81081116 58.60899796 122.81081116 58.60899796 120.97636414 58.61933899 C119.64089826 58.61178493 118.30543379 58.60397918 116.9699707 58.59594727 C115.56893622 58.59841417 114.16790356 58.60225146 112.76687622 58.60736084 C109.74551449 58.61571266 106.72434112 58.6148796 103.70297813 58.60717583 C98.92525349 58.59561506 94.1477723 58.60773727 89.37007141 58.62379456 C77.50031004 58.66002977 65.63055381 58.66621947 53.76074219 58.66369629 C44.5422247 58.66198551 35.32390532 58.66910096 26.1054433 58.70367485 C21.35654987 58.72047892 16.60813913 58.71866529 11.85924757 58.70285213 C8.90240408 58.69705497 5.94578939 58.7077959 2.98898697 58.72309875 C0.96580961 58.7286011 -1.05739124 58.71421258 -3.08052063 58.69923401 C-4.89133118 58.71360001 -4.89133118 58.71360001 -6.73872375 58.72825623 C-7.78604833 58.72804694 -8.8333729 58.72783766 -9.91243458 58.72762203 C-13.48975709 59.35606298 -15.18049079 60.71338233 -17.75537109 63.22705078 C-18.46297968 65.46518878 -18.46297968 65.46518878 -18.25537109 67.78955078 C-18.23990234 68.93617188 -18.23990234 68.93617188 -18.22412109 70.10595703 C-17.63835607 72.75654378 -16.87103855 73.55229731 -14.75537109 75.22705078 C-12.59484105 75.6785592 -12.59484105 75.6785592 -10.16093445 75.61231995 C-9.21782913 75.62196777 -8.27472382 75.6316156 -7.30303955 75.64155579 C-5.75323395 75.63469002 -5.75323395 75.63469002 -4.17211914 75.62768555 C-2.5373336 75.63815414 -2.5373336 75.63815414 -0.86952209 75.64883423 C2.74803296 75.66889065 6.36530428 75.66831115 9.98291016 75.66845703 C12.50099965 75.68022868 15.01908216 75.69359238 17.53715515 75.70848083 C24.86476648 75.74846807 32.19230729 75.76804005 39.51999664 75.78465271 C49.44154444 75.80850803 59.36297975 75.84850532 69.28441429 75.90192986 C72.9744174 75.91814506 76.66429014 75.92202776 80.35432434 75.92494202 C107.67125184 76.00924711 132.50256492 80.08857494 153.24462891 99.22705078 C153.89818359 99.80068359 154.55173828 100.37431641 155.22509766 100.96533203 C165.59308969 110.55515248 173.41001634 125.86776485 174.44946289 140.01489258 C174.54908237 143.17153742 174.56662993 146.31891091 174.55712891 149.47705078 C174.57324219 150.53279297 174.58935547 151.58853516 174.60595703 152.67626953 C174.6176664 171.80937949 167.08753721 188.22481475 153.99462891 201.91455078 C145.8160289 209.83617292 136.6886037 214.87539462 126.24462891 219.22705078 C125.61556641 219.51322266 124.98650391 219.79939453 124.33837891 220.09423828 C111.31983948 225.63282742 96.95321972 225.65736015 83.07861328 225.56762695 C81.21420811 225.56677848 79.34980194 225.56726011 77.48539734 225.56895447 C72.47608376 225.56980726 67.46699032 225.55229895 62.45772743 225.5312326 C57.20339734 225.51234495 51.94906095 225.5107059 46.69470215 225.50715637 C36.76809125 225.49787115 26.84158071 225.47330556 16.91501379 225.4431079 C5.60411034 225.40945358 -5.70679816 225.39305027 -17.0177393 225.3780216 C-40.26367197 225.34675248 -63.50951588 225.29406126 -86.75537109 225.22705078 C-85.43105972 221.81996199 -84.02981356 218.90009668 -81.97729492 215.87084961 C-81.41943802 215.04261185 -80.86158112 214.21437408 -80.28681946 213.36103821 C-79.68476181 212.47764267 -79.08270416 211.59424713 -78.46240234 210.68408203 C-77.83814865 209.76044357 -77.21389496 208.83680511 -76.57072449 207.88517761 C-74.57417236 204.93362893 -72.57102965 201.98661865 -70.56787109 199.03955078 C-69.23868036 197.07563868 -67.90989992 195.11144881 -66.58154297 193.14697266 C-59.45143176 182.61511474 -59.45143176 182.61511474 -57.53703022 179.89628792 C-55.72792799 177.28900335 -55.72792799 177.28900335 -54.37883568 174.59186649 C-52.1035242 170.55420044 -50.39367659 167.73712366 -45.84081173 166.31962681 C-42.13943625 165.98146929 -38.55648556 165.97032316 -34.84057617 166.06347656 C-33.4304524 166.06298266 -32.02032424 166.05802591 -30.61022949 166.04896545 C-27.58209871 166.03906013 -24.55642417 166.0605564 -21.52863503 166.10681534 C-16.73153318 166.17994668 -11.93591275 166.18280515 -7.13835144 166.17672729 C0.45849563 166.17544339 8.05420422 166.22153861 15.65073615 166.28764522 C29.23041341 166.40477003 42.81033347 166.45110468 56.39048082 166.46573436 C61.14854008 166.47285077 65.90567401 166.50356678 70.66346109 166.55435491 C73.63802127 166.58268862 76.61250444 166.59463496 79.58718109 166.60294914 C81.60072871 166.61381461 83.61413528 166.64502964 85.62745667 166.67710876 C95.98756389 166.6816601 106.02415292 164.93322856 114.24462891 158.22705078 C116.41793281 154.96709492 116.4938435 153.99725112 116.43212891 150.22705078 C116.42568359 149.36080078 116.41923828 148.49455078 116.41259766 147.60205078 C116.33293327 145.07777613 116.33293327 145.07777613 115.24462891 142.22705078 C113.49595407 141.14273984 113.49595407 141.14273984 111.24462891 140.22705078 C109.94525391 139.48455078 109.94525391 139.48455078 108.61962891 138.72705078 C100.4834763 135.11098296 92.0190151 134.93790421 83.23999023 134.97167969 C82.08244232 134.96805923 80.92489441 134.96443878 79.73226929 134.96070862 C77.2338877 134.95384826 74.73549124 134.95130283 72.2371006 134.95265579 C68.2709226 134.95362693 64.30491891 134.94102794 60.33879089 134.92367554 C49.06711425 134.87692867 37.79545109 134.85273269 26.52368164 134.84619141 C20.28310649 134.84241728 14.0427304 134.82420354 7.80224055 134.79109704 C4.51257455 134.77434877 1.22334639 134.76734115 -2.0663662 134.77403641 C-18.75525029 134.80640693 -33.87825945 134.53742278 -48.94287109 126.53955078 C-49.60230713 126.19706299 -50.26174316 125.8545752 -50.94116211 125.50170898 C-65.317904 117.8096388 -76.40865198 107.4171763 -82.75537109 92.22705078 C-83.14724609 91.41880859 -83.53912109 90.61056641 -83.94287109 89.77783203 C-90.05748823 75.23438502 -88.31408676 55.53617233 -82.53662109 41.20361328 C-79.13061891 33.69148623 -74.60241994 27.99358949 -68.75537109 22.22705078 C-68.14048828 21.60185547 -67.52560547 20.97666016 -66.89208984 20.33251953 C-48.3785279 2.77040403 -24.30717524 -0.10550354 0 0 Z " fill="#010101" transform="translate(662.75537109375,371.77294921875)"/>
<path d="M0 0 C1.27692719 -0.00394272 2.55385437 -0.00788544 3.86947632 -0.01194763 C7.37237527 -0.02192966 10.8744659 -0.00073173 14.37724757 0.02653241 C18.05336718 0.05039796 21.72947164 0.04741787 25.40565491 0.0478363 C31.58877174 0.05246721 37.77158113 0.07611115 43.95458984 0.11230469 C51.07424771 0.15387387 58.19362789 0.17160988 65.31340021 0.17492443 C72.91927004 0.17854603 80.52504167 0.19746837 88.1308701 0.22204471 C90.30722231 0.22823357 92.48356699 0.23189512 94.65992546 0.23507881 C98.74735944 0.2421643 102.83451962 0.26665079 106.921875 0.29296875 C108.11250046 0.29363342 109.30312592 0.2942981 110.52983093 0.29498291 C121.36818726 0.39055984 131.86940286 1.74597796 142.23071289 4.97436523 C143.31703003 5.30742676 143.31703003 5.30742676 144.42529297 5.6472168 C146.46955461 6.28354502 148.50715559 6.93732781 150.54321289 7.59936523 C151.47133789 7.89584961 152.39946289 8.19233398 153.35571289 8.49780273 C173.41161629 15.68889968 190.01663546 32.06442195 199.35571289 50.91186523 C207.88970318 71.53567509 208.5366936 94.93226744 200.23583984 115.77099609 C191.14554488 137.23720441 173.79712033 152.58154015 152.54321289 161.59936523 C148.59034021 163.13290267 144.60853141 164.39976397 140.54321289 165.59936523 C139.64903656 165.87295364 138.75486023 166.14654205 137.83358765 166.42842102 C125.15648942 169.71586529 112.14017429 168.97346156 99.14477539 168.89233398 C96.4967677 168.88673011 93.84878447 168.88231591 91.20077515 168.87947083 C84.97857866 168.87020903 78.7565435 168.84567633 72.53441751 168.81542236 C64.74310962 168.77837452 56.9517746 168.76212901 49.16040039 168.74584961 C35.28787944 168.71677381 21.41570962 168.65665453 7.54321289 168.59936523 C7.54321289 187.40936523 7.54321289 206.21936523 7.54321289 225.59936523 C-12.25678711 225.59936523 -32.05678711 225.59936523 -52.45678711 225.59936523 C-52.45678711 187.64936523 -52.45678711 149.69936523 -52.45678711 110.59936523 C-39.93999023 110.57358398 -27.42319336 110.54780273 -14.52709961 110.52124023 C-6.59739646 110.49607384 1.33228241 110.46990539 9.26196289 110.43920898 C21.8482242 110.39067303 34.43440473 110.34622772 47.02075195 110.32836914 C56.18777388 110.31534334 65.35463144 110.2883549 74.52156079 110.24475217 C79.37329757 110.22215831 84.22483177 110.20645331 89.07662582 110.20748138 C93.64856614 110.20822922 98.22005898 110.19022892 102.79188347 110.1581974 C104.46472188 110.14971808 106.1376106 110.14793505 107.81046104 110.15356255 C119.10109271 110.18646872 129.45569785 109.54518335 138.07055664 101.33764648 C143.48515036 94.94641517 144.24410788 88.11872778 143.99633789 79.91577148 C143.17522356 73.90606398 140.47143686 70.5275892 136.29321289 66.34936523 C128.93475109 61.66670772 122.22901513 59.48551729 113.53240967 59.44114685 C112.82662096 59.43620887 112.12083226 59.4312709 111.39365602 59.42618328 C109.02912263 59.41082742 106.66461636 59.40245286 104.30004883 59.39404297 C102.60489667 59.38446294 100.90974689 59.37445279 99.21459961 59.36404419 C94.61169273 59.33700258 90.0087756 59.31598897 85.40583324 59.2960422 C80.59583353 59.27417809 75.78586537 59.24679147 70.97589111 59.21998596 C61.8670548 59.17006485 52.75820096 59.12512385 43.64933038 59.0819636 C33.279402 59.03258627 22.90950528 58.97766997 12.53960752 58.92228401 C-8.79249452 58.80847288 -30.1246268 58.70163192 -51.45678711 58.59936523 C-50.07552487 55.02462754 -48.57864005 52.09010562 -46.35913086 48.95874023 C-45.73039062 48.06461426 -45.10165039 47.17048828 -44.45385742 46.24926758 C-43.77419922 45.2922998 -43.09454102 44.33533203 -42.39428711 43.34936523 C-40.94897742 41.29559146 -39.50501583 39.24086846 -38.06225586 37.18530273 C-37.30992676 36.11376953 -36.55759766 35.04223633 -35.7824707 33.93823242 C-31.12150448 27.26890235 -26.58918415 20.50993381 -22.04248047 13.76245117 C-21.36967041 12.76761719 -20.69686035 11.7727832 -20.00366211 10.74780273 C-19.41423828 9.8730127 -18.82481445 8.99822266 -18.2175293 8.09692383 C-17.63648438 7.27272949 -17.05543945 6.44853516 -16.45678711 5.59936523 C-16.01739304 4.735215 -15.57799896 3.87106476 -15.12528992 2.98072815 C-10.71038579 -0.95911742 -5.70858334 -0.07005272 0 0 Z " fill="#010101" transform="translate(343.456787109375,371.400634765625)"/>
<path d="M0 0 C1.48884581 0.00028243 2.97769175 0.00012304 4.46653748 -0.0004425 C8.48867507 -0.00072828 12.51078258 0.00513294 16.53291321 0.01213145 C20.74362026 0.01840156 24.95432807 0.01897168 29.16503906 0.02015686 C37.12983031 0.02325942 45.09460775 0.03145827 53.05939293 0.04150635 C62.13074616 0.05270094 71.20210006 0.05818636 80.27345848 0.06320179 C98.92580305 0.07364181 117.57813479 0.09122036 136.23046875 0.11352539 C134.54900257 4.54781351 132.27484857 8.27743267 129.60546875 12.17602539 C128.3482097 14.03361553 127.09164486 15.89159357 125.83998108 17.75296021 C124.71170298 19.407731 123.56207738 21.0480529 122.3969574 22.67709351 C118.71633972 27.94426546 115.80682791 32.85664236 113.6003418 38.90478516 C110.4298575 46.6011811 106.78570849 53.96711168 99.23046875 58.11352539 C83.90985042 63.12911466 65.57958792 60.83136812 49.74163818 60.1875 C42.39661081 59.91648099 35.04760637 59.82318411 27.69880962 59.70663548 C21.97724764 59.61303109 16.2606883 59.49340309 10.54194641 59.28807068 C-7.63887059 58.68672864 -23.67211201 59.97220379 -38.08203125 72.42602539 C-48.1814325 82.15317307 -55.27288077 93.36046504 -55.9375 107.75024414 C-56.13131746 124.32061655 -52.86672872 138.82362725 -40.99609375 151.15258789 C-27.39827833 163.12820779 -12.04958 166.40594327 5.56274414 166.43237305 C6.99263059 166.44168678 8.42251167 166.45185757 9.85238647 166.46281433 C13.70915722 166.48996572 17.56589174 166.50521931 21.42273259 166.51824236 C25.46264472 166.5339384 29.50248359 166.56070777 33.54234314 166.58627319 C41.18123986 166.63294689 48.82015053 166.66974599 56.4591164 166.70294607 C65.16053509 166.74124836 73.86188 166.79063713 82.56323636 166.84093022 C100.45225972 166.94408026 118.3413282 167.03339539 136.23046875 167.11352539 C134.78937244 170.85100261 133.15977587 173.92496758 130.87890625 177.22680664 C130.19973145 178.21656494 129.52055664 179.20632324 128.82080078 180.22607422 C128.08974121 181.28205811 127.35868164 182.33804199 126.60546875 183.42602539 C125.06668616 185.66401649 123.53141899 187.90441153 121.99609375 190.14477539 C121.60354401 190.71666092 121.21099426 191.28854645 120.80654907 191.87776184 C115.90182363 199.03272497 111.11282825 206.26416693 106.32177734 213.49560547 C105.69609863 214.43815186 105.07041992 215.38069824 104.42578125 216.35180664 C103.87937988 217.17720947 103.33297852 218.0026123 102.77001953 218.85302734 C102.26196777 219.5989917 101.75391602 220.34495605 101.23046875 221.11352539 C100.79699883 221.80967201 100.3635289 222.50581863 99.91692352 223.22306061 C98.23046875 225.11352539 98.23046875 225.11352539 96.14963531 225.61688995 C95.34377739 225.61839806 94.53791946 225.61990616 93.7076416 225.62145996 C92.31644356 225.63837891 92.31644356 225.63837891 90.8971405 225.65563965 C89.88114273 225.64754272 88.86514496 225.6394458 87.81835938 225.63110352 C86.74628738 225.63811279 85.67421539 225.64512207 84.56965637 225.65234375 C81.00841679 225.67001038 77.44796716 225.65825652 73.88671875 225.64477539 C71.40303394 225.64747096 68.91935015 225.65135392 66.43566895 225.65637207 C60.54382816 225.66303908 54.65227267 225.64900858 48.76047373 225.62776899 C42.78541225 225.60866119 36.81068978 225.62764096 30.83563995 225.64929962 C25.6946742 225.66388115 20.55385831 225.65909225 15.41288757 225.64878845 C12.96685202 225.64614522 10.52080224 225.64930488 8.07478333 225.65870667 C-6.36755113 225.70197198 -19.79967758 224.93050193 -33.76953125 221.11352539 C-34.42481812 220.93506577 -35.08010498 220.75660614 -35.75524902 220.57273865 C-53.93143706 215.5419754 -69.41293834 206.4253726 -82.76953125 193.11352539 C-84.03796875 191.85475586 -84.03796875 191.85475586 -85.33203125 190.57055664 C-106.04881273 169.68777531 -116.86911114 141.82524945 -117.09863281 112.5078125 C-117.0931543 111.28457275 -117.08767578 110.06133301 -117.08203125 108.80102539 C-117.0778418 107.52300049 -117.07365234 106.24497559 -117.06933594 104.92822266 C-116.96178107 95.95254006 -116.32366845 87.7599985 -113.76953125 79.11352539 C-113.50269531 78.12610352 -113.23585938 77.13868164 -112.9609375 76.12133789 C-104.97382841 49.35564786 -86.07188218 27.47666484 -61.80175781 14.02270508 C-42.42657443 3.87939966 -21.66890087 -0.05772496 0 0 Z " fill="#010101" transform="translate(139.76953125,371.886474609375)"/>
<path d="M0 0 C2.125 0.9375 2.125 0.9375 4 2 C1.73218204 6.13941945 -0.6063907 9.93513144 -3.50097656 13.6784668 C-11.35041726 23.832183 -17.74172543 34.88675756 -24.21264648 45.94775391 C-25.41235553 47.9964853 -26.62032908 50.04039769 -27.83618164 52.07958984 C-31.54599405 58.33523409 -34.89863298 64.64376735 -37.9375 71.25 C-38.33517578 72.10207031 -38.73285156 72.95414062 -39.14257812 73.83203125 C-40.10018946 75.88570376 -41.05262687 77.94159009 -42 80 C-42.66 80 -43.32 80 -44 80 C-42.99548866 73.92708575 -40.3287801 68.73367674 -37.75 63.1875 C-37.2149585 62.03548096 -36.67991699 60.88346191 -36.12866211 59.6965332 C-10.53431754 5.26715877 -10.53431754 5.26715877 0 0 Z " fill="#141414" transform="translate(164,240)"/>
<path d="M0 0 C1.48884581 0.00028243 2.97769175 0.00012304 4.46653748 -0.0004425 C8.48867507 -0.00072828 12.51078258 0.00513294 16.53291321 0.01213145 C20.74362026 0.01840156 24.95432807 0.01897168 29.16503906 0.02015686 C37.12983031 0.02325942 45.09460775 0.03145827 53.05939293 0.04150635 C62.13074616 0.05270094 71.20210006 0.05818636 80.27345848 0.06320179 C98.92580305 0.07364181 117.57813479 0.09122036 136.23046875 0.11352539 C135.57046875 1.43352539 134.91046875 2.75352539 134.23046875 4.11352539 C133.90046875 3.12352539 133.57046875 2.13352539 133.23046875 1.11352539 C81.75046875 1.44352539 30.27046875 1.77352539 -22.76953125 2.11352539 C-22.76953125 1.78352539 -22.76953125 1.45352539 -22.76953125 1.11352539 C-15.18931791 -0.10078683 -7.65996811 -0.02040581 0 0 Z " fill="#303030" transform="translate(139.76953125,371.886474609375)"/>
<path d="M0 0 C0.66 0 1.32 0 2 0 C2.29132813 0.62342285 2.58265625 1.2468457 2.8828125 1.88916016 C4.24918644 4.80398381 5.62308027 7.71514265 7 10.625 C7.49532227 11.67212158 7.99064453 12.71924316 8.50097656 13.7980957 C11.89737496 20.89910854 15.5575396 27.68733192 19.734375 34.35546875 C21 37 21 37 20.703125 39.36328125 C20.47109375 39.90339844 20.2390625 40.44351563 20 41 C19.34 41 18.68 41 18 41 C13.77493974 32.65101125 9.61300805 24.27773403 5.625 15.8125 C5.29177734 15.10681885 4.95855469 14.4011377 4.61523438 13.67407227 C0 3.82642253 0 3.82642253 0 0 Z " fill="#212121" transform="translate(120,649)"/>
<path d="M0 0 C1 3 1 3 -0.1171875 5.25 C-0.69726562 6.1575 -1.27734375 7.065 -1.875 8 C-6.94972803 16.32460436 -10.9282549 25.15309464 -15 34 C-15.66 34 -16.32 34 -17 34 C-16.36109474 29.95048871 -15.06280043 26.61072448 -13.34765625 22.89453125 C-12.81849609 21.74662109 -12.28933594 20.59871094 -11.74414062 19.41601562 C-10.91172852 17.63227539 -10.91172852 17.63227539 -10.0625 15.8125 C-9.50546642 14.59978979 -8.94882191 13.3869008 -8.39257812 12.17382812 C-3.57738586 1.78869293 -3.57738586 1.78869293 0 0 Z " fill="#212121" transform="translate(137,286)"/>
<path d="M0 0 C0.66 0 1.32 0 2 0 C3.19716659 2.45404224 4.3829346 4.91251679 5.5625 7.375 C6.07586914 8.42300781 6.07586914 8.42300781 6.59960938 9.4921875 C7.46030712 11.30052216 8.23652436 13.14851956 9 15 C8.67 15.66 8.34 16.32 8 17 C7.34 17 6.68 17 6 17 C2.91099799 11.33492989 0.42335385 6.49142565 0 0 Z " fill="#2C2C2C" transform="translate(120,649)"/>
<path d="M0 0 C2.45234885 0.98093954 3.7809268 1.68703828 5.3125 3.875 C6.1132654 6.35009306 5.86325845 7.58287634 5 10 C4.34 10 3.68 10 3 10 C0.96564469 6.27034861 0 4.33094958 0 0 Z " fill="#171717" transform="translate(135,680)"/>
<path d="M0 0 C1.1484375 1.671875 1.1484375 1.671875 2 4 C1.1015625 6.578125 1.1015625 6.578125 -0.375 9.25 C-1.09816406 10.58804687 -1.09816406 10.58804687 -1.8359375 11.953125 C-2.22007813 12.62859375 -2.60421875 13.3040625 -3 14 C-3.66 14 -4.32 14 -5 14 C-4.34580901 8.93001981 -2.1453591 4.58009223 0 0 Z " fill="#333333" transform="translate(125,306)"/>
<path d="M0 0 C0.66 0.33 1.32 0.66 2 1 C-4.435 6.94 -4.435 6.94 -11 13 C-11.66 12.67 -12.32 12.34 -13 12 C-11.3989569 10.3719224 -9.79405264 8.74764115 -8.1875 7.125 C-7.29417969 6.22007812 -6.40085937 5.31515625 -5.48046875 4.3828125 C-3 2 -3 2 0 0 Z " fill="#1E1E1E" transform="translate(602,387)"/>
<path d="M0 0 C0.66 0.66 1.32 1.32 2 2 C-0.68728192 5.58304256 -3.44463159 8.28669253 -7 11 C-7.66 11.66 -8.32 12.32 -9 13 C-9 10 -9 10 -7.5390625 8.28125 C-6.59160156 7.39953125 -6.59160156 7.39953125 -5.625 6.5 C-3.34958199 4.36503989 -1.75252437 2.62878656 0 0 Z " fill="#151515" transform="translate(776,757)"/>
<path d="M0 0 C0.66 0.66 1.32 1.32 2 2 C-0.03565478 6.36211739 -1.54525018 7.77262509 -6 10 C-4.02 6.7 -2.04 3.4 0 0 Z " fill="#DCDCDC" transform="translate(263,392)"/>
<path d="M0 0 C3.96 0 7.92 0 12 0 C11.34 1.32 10.68 2.64 10 4 C9.67 3.01 9.34 2.02 9 1 C6.03 1 3.06 1 0 1 C0 0.67 0 0.34 0 0 Z " fill="#222222" transform="translate(264,372)"/>
<path d="M0 0 C0.99 0.33 1.98 0.66 3 1 C3.33 2.98 3.66 4.96 4 7 C3.34 7 2.68 7 2 7 C0.5393715 4.35261084 0 3.10551666 0 0 Z " fill="#181818" transform="translate(127,665)"/>
<path d="M0 0 C2.15377564 2.62198774 3.40072174 4.64404172 4 8 C3.01 8 2.02 8 1 8 C-0.35439668 5.29120665 -0.06501451 2.99066732 0 0 Z " fill="#252525" transform="translate(125,658)"/>
</svg>
